<svg width="16" height="16" viewBox="0 0 16 16" fill="none" xmlns="http://www.w3.org/2000/svg">
<path fill-rule="evenodd" clip-rule="evenodd" d="M4.4379 6.90193L5.33467 7.79867L4.4 8.752L3.9665 8.31779L2.10457 10.1781C1.07625 11.2064 1.07625 12.8736 2.10457 13.9019L2.24863 14.0358C3.28313 14.9281 4.84685 14.8835 5.82843 13.9019L7.68965 12.0409L7.22933 11.58L8.16267 10.6267L9.10457 11.5686C9.36492 11.8289 9.36492 12.2511 9.10457 12.5114L6.77124 14.8447C5.22222 16.3938 2.71077 16.3938 1.16176 14.8447C-0.387253 13.2957 -0.387253 10.7843 1.16176 9.23526L3.49509 6.90193C3.75544 6.64158 4.17755 6.64158 4.4379 6.90193ZM10.9598 4.11434C11.2214 3.93697 11.5804 3.96629 11.8095 4.20002C12.0385 4.43376 12.0606 4.79323 11.878 5.05123L11.8 5.14279L8.43314 8.44262L5.14279 11.8L5.05123 11.878C4.79323 12.0606 4.43376 12.0385 4.20002 11.8095C3.96629 11.5804 3.93697 11.2214 4.11434 10.9598L4.19055 10.8667L7.49038 7.49986L10.8667 4.19055L10.9598 4.11434ZM14.8447 1.16176C16.3938 2.71077 16.3938 5.22222 14.8447 6.77124L12.5114 9.10457C12.2511 9.36492 11.8289 9.36492 11.5686 9.10457L10.628 8.164L11.5813 7.22933L12.04 7.68871L13.9019 5.82843C14.9302 4.80011 14.9302 3.13288 13.9019 2.10457L13.7579 1.97072C12.7234 1.07838 11.1596 1.123 10.1781 2.10457L8.31685 3.96556L8.752 4.40133L7.79867 5.33467L6.90193 4.4379C6.64158 4.17755 6.64158 3.75544 6.90193 3.49509L9.23526 1.16176C10.7843 -0.387253 13.2957 -0.387253 14.8447 1.16176Z" fill="#1971C2"/>
</svg>
